/* XPM */
static char *d13790310f354027dde290033cae972bxr3mShoOZTy5gJsu[] = {
/* columns rows colors chars-per-pixel */
"32 32 219 2 ",
"   c None",
".  c #DE9C1E",
"X  c #E1951D",
"o  c #E39A1D",
"O  c #E6A616",
"+  c #E7AA15",
"@  c #EBAC16",
"#  c #E5A51A",
"$  c #E9A41B",
"%  c #E7A91B",
"&  c #EAAC1B",
"*  c #EDB215",
"=  c #EBB11A",
"-  c #F1BA1D",
";  c #D58B21",
":  c #D98D23",
">  c #D58F28",
",  c #D79223",
"<  c #DD9423",
"1  c #DF9A25",
"2  c #DB952A",
"3  c #DC9B2D",
"4  c #D6922A",
"5  c #CB933D",
"6  c #DC9C32",
"7  c #D2973D",
"8  c #DE9D3A",
"9  c #D89533",
"0  c #E09724",
"q  c #E29B24",
"w  c #E29E2A",
"e  c #E19E31",
"r  c #DDA136",
"t  c #DDA33D",
"y  c #E6A224",
"u  c #EAA525",
"i  c #ECAC24",
"p  c #E5A32C",
"a  c #E9A529",
"s  c #E6AB2D",
"d  c #ECAA2B",
"f  c #E5AB20",
"g  c #F1AB2B",
"h  c #F0AC26",
"j  c #EDB32C",
"k  c #EEB92F",
"l  c #EDB220",
"z  c #F4B425",
"x  c #F3B924",
"c  c #F3B42C",
"v  c #F6BB2D",
"b  c #FABE2C",
"n  c #E3A434",
"m  c #E5AE33",
"M  c #EBAD31",
"N  c #E3A33A",
"B  c #E3AC3C",
"V  c #E9AC3D",
"C  c #F6AA31",
"Z  c #F8AD33",
"A  c #E7B634",
"S  c #EEB333",
"D  c #EFBA37",
"F  c #E7B43B",
"G  c #ECB33C",
"H  c #ECBC3C",
"J  c #F3B432",
"K  c #F9B434",
"L  c #F4BB34",
"P  c #F9BC33",
"I  c #F2BC3A",
"U  c #FABC3A",
"Y  c #F5C22A",
"T  c #FCC22E",
"R  c #EDC33F",
"E  c #F7C335",
"W  c #FAC434",
"Q  c #FCC835",
"!  c #F5C33D",
"~  c #FAC53A",
"^  c #FBCB3A",
"/  c #CC9B44",
"(  c #C99745",
")  c #D39D43",
"_  c #DD9F41",
"`  c #CCA04D",
"'  c #D4A145",
"]  c #DBA642",
"[  c #DDAC46",
"{  c #DBA349",
"}  c #DCAC4E",
"|  c #D7A351",
" . c #D3AD52",
".. c #DCAC54",
"X. c #D7A75A",
"o. c #DDAD5C",
"O. c #DAB052",
"+. c #DEB851",
"@. c #DEB85A",
"#. c #DEB65C",
"$. c #E3AA48",
"%. c #E5B342",
"&. c #E5B941",
"*. c #ECBA46",
"=. c #E5BD4A",
"-. c #EABA4B",
";. c #E7B549",
":. c #F1BD42",
">. c #EABA55",
",. c #E2B25A",
"<. c #E6B95C",
"1. c #DFB162",
"2. c #E2B362",
"3. c #E6BB66",
"4. c #E2BD6D",
"5. c #E2BA72",
"6. c #EFC142",
"7. c #ECC34E",
"8. c #ECCC4E",
"9. c #ECC846",
"0. c #F6C543",
"q. c #F9C642",
"w. c #F4CB43",
"e. c #F9CB44",
"r. c #F1C44B",
"t. c #F4C949",
"y. c #F9CC4B",
"u. c #FCD444",
"i. c #FBD44A",
"p. c #F6D34F",
"a. c #E4C552",
"s. c #E9C352",
"d. c #EDC75D",
"f. c #E8C958",
"g. c #F0C656",
"h. c #F5CB52",
"j. c #F9CF52",
"k. c #F3C658",
"l. c #F3CE5A",
"z. c #ECD154",
"x. c #F7D353",
"c. c #FCD554",
"v. c #FADB52",
"b. c #F6D35E",
"n. c #FBDD5D",
"m. c #F2D859",
"M. c #FBE05D",
"N. c #EDC364",
"B. c #E3CE64",
"V. c #E2C769",
"C. c #E7CE6B",
"Z. c #EDCD6F",
"A. c #E7C667",
"S. c #F1CF6F",
"D. c #F2CD63",
"F. c #E9D16C",
"G. c #F3D165",
"H. c #F6DB64",
"J. c #FCDB66",
"K. c #F5D66A",
"L. c #F9D569",
"P. c #F7DB68",
"I. c #FBDB6D",
"U. c #F9D260",
"Y. c #E5C376",
"T. c #EFCF76",
"R. c #E4C37E",
"E. c #E7CB7E",
"W. c #EBC679",
"Q. c #E7D579",
"!. c #ECD47C",
"~. c #FBDC73",
"^. c #F2D47D",
"/. c #F7DB7C",
"(. c #F5D877",
"). c #FCE076",
"_. c #FEE17C",
"`. c #FCE976",
"'. c #E7CA86",
"]. c #EACC85",
"[. c #E8C986",
"{. c #EDD484",
"}. c #ECD38A",
"|. c #EBDD89",
" X c #F2D284",
".X c #F8DF80",
"XX c #F4DA8C",
"oX c #F1D289",
"OX c #ECD394",
"+X c #EED890",
"@X c #EBD49C",
"#X c #EDDA9E",
"$X c #F3DA93",
"%X c #F0DB9A",
"&X c #EFE18E",
"*X c #F7E385",
"=X c #FAE385",
"-X c #FDEA83",
";X c #FBE98A",
":X c #FCE989",
">X c #F5E48D",
",X c #F7E692",
"<X c #F8E796",
"1X c #F7E29E",
"2X c #F6E89B",
"3X c #FCED94",
"4X c #EDDDA4",
"5X c #EFDFAB",
"6X c #F2DEA2",
"7X c #F0DFA8",
"8X c #EFE4AF",
"9X c #F3E1A7",
"0X c #F8E5A8",
"qX c #F8E5A6",
"wX c #F2E6B4",
"eX c #FBECB3",
"rX c #F4EBBB",
"tX c #FAF2C5",
"yX c #FBF7CD",
/* pixels */
"                          <X,X>X_./.).                          ",
"                    2X&XQ.F.f.f.a.a.a.8.8.y.                    ",
"                2X|.B.z.m.v.M.M.v.u.i.w.R A *.l.                ",
"            2X|.B.z.v.M.-XP.p.P.G.w.p.y.! W D F Z.XX            ",
"          <XQ.8.v.`.H.p.(.l.^ t.R E ! L L w.y.G F ].9X          ",
"        >XF.9.i.x.*XG.^ ! q.y.y.y.e.I L L r.k.Z S B '.9X        ",
"      *XC.R n.P.q.w.! x.).;X:X-X).J.c.e.L M M %.XXN.r W.{.      ",
"      F.H ^ b.K.0.q.~.3X;X).b.b.x.~ ~ ^ ~ v d V OX3.q 6 N.      ",
"    K.&.! q.I D 0.;X=XL.L.).~.~.i.~ b z v b z w 3 3 n 2 r 7.    ",
"    7.S y.j.L ! =X~.h.L._._._.~.i.~ P K c K z u 0 w 0.M ; m     ",
"  l.m c I H J L.I.h.J.)._._._.J.q.K Z K C h h u 0 2 p < ; , %.  ",
"  6.s L C d *.I.e.e.i.e.J.).~.c.U Z Z g h i q q 0 : ; < , ; r   ",
"  F a 0.0.p k.e.v ^ E * Y v.v.u.K C C & * $ q o 0 ; , q < ; 2   ",
"D.B q F B n l.~ b ~ v * * - E E K g * $ @ q 0 0 < ; < < , < ; ) ",
"^.] q n w N h.~ W L j * j f * j h * $ w $ o : : : ; < q 0 y , ) ",
"XX{ $.$X2.e 0.P c c i @ s p y % @ u & $ O q : : : ; < p w y 1 ' ",
"7X| e [.X.e I c g d y + p p p q u & & $ O 1 2 3 < < y u w d a [ ",
"5XX.> 9 : e *.i d a q + y q # i & i i & % u p p p p d z c v j =.",
"%Xo.; >.>.9 B u q q 0 # + $ # & & * = M d J J d c s j ~ E I H +.",
"  2.> -.*.0 N y $ q X < . O @ = = x L L L K L v z j ~ ! I ! H   ",
"  s.: 0 1 q n n o X < X q q $ = = Y E v P W W b S I e.t.h.r.%.  ",
"  r.w q a d u n : o o 0 q u i d c E W W ~ W b E &.j.:.g.I.;.]   ",
"    s q a u u c w : o o q h c v E Q ^ Q Q Q ^ 7.G.L.n } T.t     ",
"    F q i a c d c w q q u z x b T T T E ^ u.a.F.(. XoX}.,.7     ",
"      6 a v s : S E m d c b T W ^ ^ u.i.8.A.XXXXe 2.eX[.7       ",
"      ' 2 D S n q.q.t.r.*.*.0.0.w.t.f.A.}.$X1X%X1.[.4X|         ",
"        ) 3 R c.h.I r.I.I.(.!.T.{.+X%XqXeX3.[ wXtX4X../         ",
"          ) B g.~.D.S./.:.N.qX^.}.eXW.} 8X[.4.wX#X../           ",
"            } *.d.XXqX1X<.W.7X_ { wXY...rXyX8XE.O.              ",
"                -.-.S.$X8XtXtX@X@XyXrXwX4XE.@. .                ",
"                    [ ] $.1.4.5.[.Y.4.#.O. .                    ",
"                          ( 5 5 ( / `                           "
};
