/* XPM */
static char *_5144228db0d4c4ae47d8613cc7305d74R91m59MxXjRxPp1[] = {
/* columns rows colors chars-per-pixel */
"16 16 199 2 ",
"   c None",
".  c #DF951F",
"X  c #E39F1D",
"o  c #E3A21B",
"O  c #E7A51F",
"+  c #E8A51C",
"@  c #E9A71C",
"#  c #E8AB19",
"$  c #E8AB1D",
"%  c #E9AB1E",
"&  c #ECAB1F",
"*  c #ECB31D",
"=  c #D88D22",
"-  c #DB9021",
";  c #DB9222",
":  c #DB9024",
">  c #D89225",
",  c #DC9324",
"<  c #DE9624",
"1  c #D5942F",
"2  c #DD9828",
"3  c #DA9A2E",
"4  c #D89F39",
"5  c #E09620",
"6  c #E09A21",
"7  c #E09823",
"8  c #E19823",
"9  c #E39D23",
"0  c #E49C20",
"q  c #E59D21",
"w  c #E29C25",
"e  c #E29C27",
"r  c #E19D2B",
"t  c #E19F2A",
"y  c #DFA434",
"u  c #DCA338",
"i  c #DFA23B",
"p  c #E5A323",
"a  c #E5A521",
"s  c #E7A224",
"d  c #E9A323",
"f  c #EEAA21",
"g  c #EAAC21",
"h  c #EBAE22",
"j  c #E9AA25",
"k  c #EAA926",
"l  c #EEA924",
"z  c #E4A129",
"x  c #E5A229",
"c  c #E4A22C",
"v  c #E6A32D",
"b  c #E3A52D",
"n  c #ECA729",
"m  c #EAA928",
"M  c #EBAB2A",
"N  c #ECAA2B",
"B  c #EDAE2B",
"V  c #E8AA2D",
"C  c #F0AC28",
"Z  c #ECB022",
"A  c #EEB12B",
"S  c #F2BD26",
"D  c #F0B42C",
"F  c #F3BB29",
"G  c #F7B92B",
"H  c #F6B82D",
"J  c #F4B92F",
"K  c #E2A032",
"L  c #E4A631",
"P  c #E6AF36",
"I  c #E9AC31",
"U  c #E9AD32",
"Y  c #E3A73B",
"T  c #F5AE30",
"R  c #EEB032",
"E  c #EDB535",
"W  c #EAB03A",
"Q  c #ECB13E",
"!  c #EFB93D",
"~  c #F2B330",
"^  c #F5B030",
"/  c #F4B430",
"(  c #F0B637",
")  c #F4BA34",
"_  c #F4BE36",
"`  c #F8BA30",
"'  c #F1BB39",
"]  c #F2BD3C",
"[  c #F0BF3F",
"{  c #F6BF3C",
"}  c #FABB3B",
"|  c #F3C22F",
" . c #F8C031",
".. c #FBC233",
"X. c #FBC432",
"o. c #F9C134",
"O. c #F9C434",
"+. c #FCC734",
"@. c #F1C13A",
"#. c #F4C039",
"$. c #F6C13A",
"%. c #F5C03D",
"&. c #F7C63C",
"*. c #F9CB3C",
"=. c #F9C83F",
"-. c #DEA449",
";. c #D4A857",
":. c #DCAD50",
">. c #E0A443",
",. c #E5AB47",
"<. c #E2AC49",
"1. c #E5AD4B",
"2. c #E8B744",
"3. c #EABA40",
"4. c #EEBE43",
"5. c #E6B94D",
"6. c #EDBE48",
"7. c #F0BD43",
"8. c #E2B357",
"9. c #EABB55",
"0. c #E4B65A",
"q. c #DCB061",
"w. c #DCB46B",
"e. c #DDBB6D",
"r. c #DDB96F",
"t. c #E1B863",
"y. c #EABE64",
"u. c #E1B76D",
"i. c #EDC149",
"p. c #EDC14A",
"a. c #F4C142",
"s. c #F5C541",
"d. c #F6C547",
"f. c #F5CC45",
"g. c #F6CC46",
"h. c #F8CA40",
"j. c #FBCA43",
"k. c #F3C348",
"l. c #F4C54F",
"z. c #F7C948",
"x. c #F0C94E",
"c. c #F6CB4C",
"v. c #F5D14E",
"b. c #EFC950",
"n. c #EEC953",
"m. c #EFCD59",
"M. c #F0C351",
"N. c #F8CF50",
"B. c #F5CD5B",
"V. c #EFD25C",
"C. c #F6D156",
"Z. c #F7D256",
"A. c #F7D456",
"S. c #F9D255",
"D. c #FAD456",
"F. c #F2D058",
"G. c #F5D758",
"H. c #FAD458",
"J. c #EDC963",
"K. c #EBC36A",
"L. c #F2CC66",
"P. c #F1CC69",
"I. c #EFD263",
"U. c #EED76E",
"Y. c #F9D766",
"T. c #F1D963",
"R. c #F6DA61",
"E. c #F4DC63",
"W. c #F6D168",
"Q. c #F9D668",
"!. c #FDDB68",
"~. c #FBDC6F",
"^. c #FDDC6F",
"/. c #E8C175",
"(. c #E7C77F",
"). c #E3C87D",
"_. c #EDD171",
"`. c #EDD973",
"'. c #EED87A",
"]. c #EEDA7A",
"[. c #FADB72",
"{. c #FDDE71",
"}. c #F0D17B",
"|. c #FCDF78",
" X c #FBE076",
".X c #ECCE86",
"XX c #EACF89",
"oX c #ECCE8D",
"OX c #EFD488",
"+X c #EBD08D",
"@X c #EAD08E",
"#X c #F0D387",
"$X c #F1D484",
"%X c #F0D38C",
"&X c #F0DE89",
"*X c #E9D190",
"=X c #EED391",
"-X c #ECD194",
";X c #ECD99A",
/* pixels */
"          &X'.U.I.m.b.          ",
"        `.T.E.G.v.f.@.a.        ",
"    '.V.R.A.Z.S.z.$.%.7.9.+X    ",
"    x.Z.z.Y. X^.H.=.) Q y.<.    ",
"  i.s.a.Y.[. X^.j.` H N K b y   ",
"i.E ( M.D.D.[.!.} T C d < 2 > u ",
"2.U W d.O.S | =.T l + 8 ; , ; 1 ",
"0.1.,.{ J h k h & % o = = 7 w 3 ",
"w.-.-.R N + d p % % a r w M A P ",
"t.Y Y v q < o # * D / / A ) #.3.",
"5.r x x 5 < 9 h F o.X.` 7.k.M.  ",
"  b l N t X l G X.+.*.n.P.K.8.  ",
"    V U ' ] ' &.f.F._.#X/.(.    ",
"    4 6.B.W.L.}.#X.X=X@X@X;.    ",
"        J.#X%X+X-X@X;X).        ",
"          :.q.w.r.e.            "
};
