/* XPM */
static char *_b1e52fd87974610cceaf85ca6fa3bc77D9mEHXAa5oab630[] = {
/* columns rows colors chars-per-pixel */
"64 64 238 2 ",
"   c None",
".  c #C77F1C",
"X  c #CC841E",
"o  c #D0861F",
"O  c #D38C1E",
"+  c #D98C1F",
"@  c #DD921F",
"#  c #DB9B1E",
"$  c #D4911E",
"%  c #E49C1C",
"&  c #E2981C",
"*  c #DFA319",
"=  c #E9AE0E",
"-  c #EEB10D",
";  c #E5AA14",
":  c #EBAD13",
">  c #E5A31E",
",  c #EAA31D",
"<  c #ECAC1B",
"1  c #E8A416",
"2  c #EDB112",
"3  c #EEB21C",
"4  c #F3B41D",
"5  c #F2B819",
"6  c #F0AF12",
"7  c #CA8623",
"8  c #D08520",
"9  c #D48B22",
"0  c #DA8D22",
"q  c #D68E29",
"w  c #D69223",
"e  c #DC9323",
"r  c #DD9A24",
"t  c #D5932B",
"y  c #DA942A",
"u  c #D49C2A",
"i  c #DD9A2B",
"p  c #D69827",
"a  c #CA953D",
"s  c #DB9B33",
"d  c #D59B3C",
"f  c #DC9D3A",
"g  c #D59635",
"h  c #CA8F28",
"j  c #E19623",
"k  c #E39B24",
"l  c #E49D2A",
"z  c #E89F21",
"x  c #E19D30",
"c  c #DBA22B",
"v  c #D9A328",
"b  c #CEA63A",
"n  c #DDA335",
"m  c #DCA43B",
"M  c #D8A938",
"N  c #DBB138",
"B  c #E5A325",
"V  c #EAA425",
"C  c #E4A924",
"Z  c #ECAB25",
"A  c #E5A22B",
"S  c #E9A52A",
"D  c #E6AC2C",
"F  c #ECAB2B",
"G  c #F1AE25",
"H  c #F2AC2C",
"J  c #F0A72D",
"K  c #EEB322",
"L  c #ECB22B",
"P  c #EBB627",
"I  c #F4B325",
"U  c #F9BB25",
"Y  c #F3B42D",
"T  c #F6BB2D",
"R  c #F9BD2C",
"E  c #F4BD24",
"W  c #E2A433",
"Q  c #E5AB33",
"!  c #ECAD32",
"~  c #E4AC3C",
"^  c #E7A93A",
"/  c #F5AC31",
"(  c #F8AE34",
")  c #E6B235",
"_  c #ECB333",
"`  c #EDBA34",
"'  c #EBB43B",
"]  c #ECBC3B",
"[  c #E4B53C",
"{  c #F3B432",
"}  c #F9B434",
"|  c #F5BB33",
" . c #F9BD32",
".. c #F3BE3A",
"X. c #FABD39",
"o. c #FAC12E",
"O. c #EDC23C",
"+. c #F5C334",
"@. c #FBC434",
"#. c #FDC936",
"$. c #F6C33B",
"%. c #FAC53B",
"&. c #FCCB3B",
"*. c #F4C93D",
"=. c #FED13E",
"-. c #BA995A",
";. c #BBA060",
":. c #CD9B47",
">. c #D59C45",
",. c #C49C56",
"<. c #CBA747",
"1. c #DCA443",
"2. c #D8A748",
"3. c #D8B648",
"4. c #CAA859",
"5. c #D3A454",
"6. c #D5AB57",
"7. c #CDB454",
"8. c #DBB45B",
"9. c #D9B658",
"0. c #CFB24A",
"q. c #E3AC43",
"w. c #E4AB49",
"e. c #EABB44",
"r. c #E4B44C",
"t. c #E7B747",
"y. c #F1BD46",
"u. c #E3AE56",
"i. c #E5BA57",
"p. c #C8AA61",
"a. c #D7AE64",
"s. c #D9B767",
"d. c #DBBA78",
"f. c #E4BA67",
"g. c #E1BE7A",
"h. c #DEC04C",
"j. c #EBCB4B",
"k. c #EAC448",
"l. c #F4C443",
"z. c #F5CB43",
"x. c #FBCC43",
"c. c #F4C54B",
"v. c #F4CA4C",
"b. c #F9CD4B",
"n. c #F8C642",
"m. c #EBD04E",
"M. c #FDD344",
"N. c #FCD34C",
"B. c #FEDB4C",
"V. c #F6D248",
"C. c #ECC554",
"Z. c #EDCA5B",
"A. c #E7C458",
"S. c #F5CB53",
"D. c #F9CE52",
"F. c #F5CD5B",
"G. c #F6C956",
"H. c #F4D354",
"J. c #FBD452",
"K. c #FCDB53",
"L. c #FBD45C",
"P. c #FCDC5B",
"I. c #F5D45B",
"U. c #FDE155",
"Y. c #F9E25E",
"T. c #DAC467",
"R. c #DFC47D",
"E. c #ECCB63",
"W. c #E6C769",
"Q. c #F3CD67",
"!. c #EDD36A",
"~. c #F3D264",
"^. c #F9D463",
"/. c #FCDB64",
"(. c #FCDC6C",
"). c #F5D668",
"_. c #EBCA7C",
"`. c #E6C777",
"'. c #EAD379",
"]. c #F2D473",
"[. c #FCDD73",
"{. c #F2D47C",
"}. c #FBDD7A",
"|. c #F5DA78",
" X c #FBE16D",
".X c #FCE264",
"XX c #FCE274",
"oX c #FEE17C",
"OX c #FCE87B",
"+X c #DBBD81",
"@X c #E6C984",
"#X c #E9D588",
"$X c #F5DB83",
"%X c #F5DD8B",
"&X c #F4D885",
"*X c #E4CD95",
"=X c #EBD492",
"-X c #E9D69A",
";X c #F4DD94",
":X c #F2DB97",
">X c #FAE384",
",X c #FCE983",
"<X c #FBE38B",
"1X c #FDEC8C",
"2X c #F6E589",
"3X c #F5E394",
"4X c #FCE695",
"5X c #FCEE92",
"6X c #F6E29C",
"7X c #FDEB9C",
"8X c #F8E79A",
"9X c #FCF29C",
"0X c #FDF095",
"qX c #F7EB8D",
"wX c #EBDAA5",
"eX c #F1DFA4",
"rX c #F6E3A4",
"tX c #FBEBA2",
"yX c #F3E3AB",
"uX c #FDECAC",
"iX c #FAE6A3",
"pX c #FBF4A4",
"aX c #FCF5AA",
"sX c #EEE2B4",
"dX c #F3E6B4",
"fX c #FDEDB4",
"gX c #F3EABC",
"hX c #FBEEBB",
"jX c #F4E8B6",
"kX c #FCF1BC",
"lX c #FEF0B4",
"zX c #DEC58A",
"xX c #F4EEC1",
"cX c #FDF4C6",
"vX c #FBF6CB",
"bX c #FDF9CE",
"nX c #F5F1C6",
"mX c #FDFBD2",
/* pixels */
"                                                          |.|.|.}.|.|.                                                          ",
"                                                3X8X7X7X9X9X9X0X1X<X,XOXOXoX|.].                                                ",
"                                          8XtXpXpX9X3X#X!.T.T.h.9.9.h.A.Z.I.P././.).~.                                          ",
"                                    2X9XaXpX8X'.T.7.0.3.h.h.h.j.j.j.k.3.N M M N k.z.N.H.~.                                      ",
"                                -XpXpXpX#XT.0.h.m.U.U.U.U.U.B.Y.K.B.B.B.B.N.z.O.N v M ` x.J.~.                                  ",
"                              8XaXpXzX7.0.m.U.U..XY.U.K.B.U.U.OXI.B.M.M.V.K.M.M.x.&.` v v ` b.^.].                              ",
"                          %XtXaX#Xh.h.m.U.U.U.K.OX,X.XY.V.I.OXOX X).j.=.M.K.B.S.] #.%.#.` u M C.[.$X                            ",
"                        3XpX8XT.b m.U.U.U.B.K. XqXqXqXA.V.j.~. X Xk.l.z.H.H.N.l. .@.#.%.$.@._ u 8.$X4X#X                        ",
"                      8XpX#X0.h.K.U. XY.Y.H.V.!.>X,X|.j.=.=.I.S.m.] #.$.' *.n.$.+.@.@.n.n.$.X.| c 6.;XfX:X                      ",
"                    3X9X'.0.j.B.B.B.qXqX2Xm.M.=./.!.Z.k.%.#.k.' ] ) @.#.#.$.) L ) ..v.J.J.F.r.{ { S <.-XhXwX                    ",
"                  3X9X'.b V.B.B.B. X5X0X>Xm.=.&.k.O.%.+.%.@.@.#.@.X.@. .@._ |  .R | ' F.(.Z.F } T Y S :.wXhX-X                  ",
"                qX5XT.b =.B.=.M.V.Z.].,X].Z.*.#.+.%.%.&.x.N.L.L.L.D.b.%. . .R | | T | Q.i.W.' G H y.' V a -XfX=X                ",
"              2X5XW.b M.U.K.K.!.*.#.x.E.] $.+.@.n.^.oXqX7X7X0X0X1X,XOXXX/.D.l.} Y Y { ~ F ^ ^ y.y.:Xf.G l a :X7X@X              ",
"            {.1X!.b *.=.H.,XqX!.$.#.%.] @.#.x.}.9XaXpX9X1X1X,XOXOX(..X.XP.P.K.V...{ F H F F H f.jXhXrX`.W k :.{.%X              ",
"            qX|.b O.=.#.N.OXOXXXH.$.@.@.$.(.tXaXpX5X5X(.L.L.S.[./.l.n.b.n.x.=.=.x.%.{ F Z S S ^ yXhX:X6.l z 0 <.(.'.            ",
"          |.OX3.D #.#.*.Z.E./.A.t. . .b.3XaXpX1XXX(.,Xc.F.c.v.F.G.%.+.| I T %.@.#.#.#.{ S V V r.@X`._.l k k j 7 r.P.W.          ",
"        {.XXA.c %.#.%.$.| | k.'  . .F.tXpX1X[.(.c.L.,X(.^.[.[.[./.M.#.#.R I T 4 T @.@. .{ B z x i l >.e j j i e 7 l.Z.          ",
"        |./.b ` %.%.b.k. .o.{ {  .^.pX9X1XG.c.(.XX(.oXoXoX}.oXXXP.N.&.#.@. .R I I I T T | Y B k k j r W Q q.q.0 7 u &.A.        ",
"      ).(.t.v @.c.L./.j.%.|  .T F.tX5X,XG.S.c.).oX>XoX>XoX>X}./.B.x.%.@.X.X. .} I I T T T Y G k j j e W D.J.' e 0 7 F v.        ",
"      ].H.u Y R ..D.K.N.e._ T c.8X1XXXl.l.S.oXoXoX}.oX}.oX}.oX/.N.%.@.X.}  .} T T H Y Y G Y H V 0 j 0 W x.#.$.Q 0 8 9 | i.      ",
"      /.[ v  .| ..S.z.l.D L | <X1XXXL.c.^.}.oXoX>XoX}.oX}.oX[.P.x.X.X.} ( } ( } H Y Y G , G J V k 0 0 ^ Q | l 9 9 9 . Z t.      ",
"    !.J.v D { T ' Q Q Q F / Q.1X Xv.l.D.(.(.(.XX}.oXoXoXoXoX[.J.x.X.} } ( ( H / H H H H G V V V z e 0 9 8 r 9 0 0 0 X O ' 9.    ",
"    I.$.w Y T { Y Y H S F y.<X XK.X.z.z.K.K.B.P.(.oXoXoXoXoX/.B.n.} ( ( / / H H H H S S V , > V z e 9 0 0 9 9 9 9 0 9 . S r.    ",
"    J.Q p Y H .._ H F H S Q.oXK.z. .#.M.M.*.K &.K./.[.[.XX(.P.N.X.( ( ( / / H J G < Z S V % % B k l 9 9 9 0 k l x s 9 X w q.    ",
"  E.x.u B ' ..x.%.y.Q S ! $XP.x.G T =.=.=.+.= 5 o.M.K.Y.P.P.N.&.X.} ( / / J J Z 6 - , l k k k % j j 9 9 0 9 l V B 9 e X X W 5.  ",
"  ~.z.w V W ' x.N.e.i V i.[.M.@.I R &.%.#.+.= - - E *.M.N.N.V.*.X.( / J J J G 6 - - , l k j % % j j 0 O e i W k j e @ 0 X i 6.  ",
"  ~.k.h V V ! S.G.r.z l Q.J.&.I 3 @.#.#.@.T = 2 ; - 5 #.x.=.&.@.} ( J J J < - 6 ; - % l k e j j j 0 0 o e q 9 0 0 8 9 & . y 2.  ",
"  (.t.9 S S ^ m s d l A ].N.M.%.@.@.@.@.@.P = 5 ` ; - - E +.$.| } J J G 6 - : z k - > j i e e 0 e 0 0 o $ j & 0 8 k j B 8 8 2.  ",
"  }.9.9 z l l j k j j ^ ].b.n.#.@. .R | T P = 5 ` P C - - 3 T _ H J G 6 - , l l > - % y j 0 0 0 0 0 + 8 $ k & j j z % B O X 1.  ",
"`.>X8.9 z k r.W r l j w.^. .@.@.| | | | | C = 3 L D Q B ; - 3 L F 3 - 6 z l V l # - > e y j 0 0 + 0 0 8 e % k V k B V Z @ o 1.  ",
"_.4Xa.9 j l _.&X_.5.@ w.D. . .R  .{ Y { L D = 3 D Q S W c * 2 - 2 - < l l < 6 z & - % 0 0 0 0 0 0 0 0 o + V V W e A n B k O q.  ",
"_.uXa.O f _.uXkXwXq @ u.G.R R } T H L H F C = 3 S S S S S l v = = < l z < - 6 z & 6 % y 0 y 9 0 0 0 0 9 + V W W e i w Z B 9 q.  ",
"@XhXa.q y u.yXxXwXf + u.c.T T Y Y H F H S C = < S S l l S l x r B S V 2 - ; - B # - > w y w y q w w e 0 $ G B r k A B Y V r q.  ",
"@XxX+X. 0 0 @Xa.5.>.+ w.c.Y H H F H V S S k = < l l l l B A l B A < 2 : A > - c % - > i i i i l l l l w w I I F i l B F Z A t.  ",
"@XxX+X. 0 0 d q + 0 0 1.i.I H F Z F S l z r = : l z k k < < B B C - 3 D A C 2 S v - C W l A A A l A S e k I I Y D T T R Z D c.  ",
"  fX@X. 0 0 y j 0 0 0 x i.G F G S V S z l r = - < l l r 1 = 3 C c - 3 Q Z 2 2 D C - Z S S W S W Q F F r B T R  .R R R o.L ` C.  ",
"  uX*X. 0 0 w.f.u.u.q y i.J S V V B z l z r r ; - : B k r 1 - Z v - 3 K 2 3 F F B Z _ F Q ! F ! H Y Y p L R  .%.| @.@.#.D +.A.  ",
"  :X:Xh 0 9 q.}.[.w.9 0 u.! z , , j l k k k r w % - 2 > B v - 3 D 2 - - 3 ) ! { ! _ { / { { } { G I Y p  .$.n.x.+.n.] +.) $.9.  ",
"  @X%Xa o s E./.L.c.l e q.q.k % 1 % r e & j j j # # = - < > - K D - 2 E ` _ { { } { { } {  .} R U U F c @.| ] #.#.) $.l.) n.6.  ",
"  `.}.:.8 y q e.e.s y e l r.z j 1 1 j e e r @ e e e # ; - - - K P - 3 +...| { | | |  .}  . . .U 4 @.c _ #.#.%..._ _ x.z.L c.    ",
"    ].t.X @ @ B y j j j j q.W e z % % @ @ 0 @ j & j k r * - - K P - 3 *.+.|  . . .| @. .X.@.R U U +.u %.&.x.y.e.k.q.D.e._ i.    ",
"    !.l.7 @ & e r & k A z S q.r & % & @ @ j @ & j j B B B * = K P ; o.+.+.+. . . .@.@.@.#.@.R U #.M ' b.b.N.v.J.L.P.L.[ { 6.    ",
"    W.x.p + k k S D ' A k V ~ s @ @ 0 % & 0 j j j k z V F F C L P 3 o.o.@.o.@.@.@.#.#.#.o.U U #.O.b J.J.L.c.t.(./.(.Q.W ' 4.    ",
"      v.L O z > B Y Y Z S Z F q.e 0 @ & % & & j j k l V F L Y { T +.o.o.@.o.@.#.%.#.#.R 5 o.&.V.b C.L.y.' ! ^ F.[.}.i.V 2.      ",
"      A.| O % V ! ) Z B k B Z _ f 0 0 0 % 1 % & j l J H H T T R | +.+.o.#.@.#.&.&.&.o.o.o.=.M.M 3./.(.Q.S z i >.{.$XW W 4.      ",
"      8.l.B $ Z A k % r Z G I T ! s 0 0 @ & % % z z V H Y { R R @.@.#.#.#.=.#.#.o.&.=.@.M.B.3.0.[.[.}.Q.s y g &X4Xf.y 1.        ",
"        r.L $ V G H B v I I { L R ! y 0 j j , , , < G G I R o.@.@.#.@.o.#.#.@.E U @.M.B.B.3.7.oX>X>X<X{._._.5.6X;Xd i ,.        ",
"          t.% w G U I L {  .W A R o.! x j z z V Z G 4 4 4 U 5 U @.o.o.o.E R o.@.=.B.U.B.N 7.$X{.|.%Xf.;XtXtX:XiXf.w >.          ",
"          6.F 9 C R R R A y 0 i Q | #._ i B F H Y Y  .T U o.U o.=.o.o.o.@.M.M.B.K.U.j.<.s.<X4X{.f f g :XuXuXlX*Xt d ,.          ",
"            2.k O Y o.o.} r 9 9 i X.#.&.$.Q A H | R  .@.#.#.&.&.=.M.M.M.N.B.K.K.N.0.4.#X7XiXtX;Xx 0 q f.rXhXyX>.y :.            ",
"            4.1.O w | @.' t 0 t $.&.x.l.b.N.e.N n ` @.#.#.=.=.M.M.B.B.B.U.B.m.0.4.zX6XtXuXuXuXg.d j >.g.yXgXa.0 :.              ",
"              4.f O u #.....$.n n.b.D.' v.L.L.L.Z.r.2.N [ O.*.*.z.z.j.3.0.4.s.@XiXpX:X_.uX:XeXyXyXa.+XvXcXd.y >.-.              ",
"                5.s X n x.N.b.N.D.k.n. .$.t.^.(. XXX}.].W.s.s.s.s.s.R.R.=XrXuXfXfXlXrXf 1.>.eXcXvXsXdXcXd.s 1.-.                ",
"                  5.u 9 n N.K.L.L.C.y.@.+.E.}.}.^.(.<X$X4X7X6X7X8XtXuXuXuX;XrXhXkXfX_.s i 1.dXbXvXbXnXd.g 1.;.                  ",
"                    5.W r 1.F.(.[.[.v.t.e.E.%X<XG...y.`.6XtXuX&X=XfXfXkXkXf.u.=X-XsXd.1.n 2.R.vXbXxXs.x 2.,.                    ",
"                      4.q.B ^ E.oX}.W.{.&X&X%XE.} Y Q =XuXiX6Xw.u.rXuXdX@Xf r g *XvXbX=Xs.gXxXbXwX8.f 8.p.                      ",
"                        4.i.| ) A.&X8X4X7XtX8X#Xt.l x f.jX@Xf 0 e >.-XgXa.g x >.sXbXmXgXsXmXnX@X2.q.8.-.                        ",
"                            i.n.$.r.`.rXuXuXfXlXf.a.wX-XhXcXu.8 9 d.vXbXvXu.6.s.*XmXmXmXnX-X8.N i.p.                            ",
"                              7.C.&.] i.@XrXfXkXyXfXcXcXcXcXs.a.5.+XmXmXcX*XgXbXnXmXgX-Xs.3.t.8.;.                              ",
"                                  8.k.$.{ r.`.*XgXcXvXbXbXvXsXvXnXsXbXmXmXbXbXxX-XR.9.q.t.9.p.                                  ",
"                                      6.r.) S W 1.a.g.*XwXgXgXgXgXgXsXwX-X@Xs.2.M t.r.8.p.                                      ",
"                                          4.5.1.x x e 0 q t a d d d d f s m 1.r.9.a.;.                                          ",
"                                                -.,.:.5.>.d d d 1.<.2.6.6.4.4.                                                  ",
"                                                                                                                                "
};
